<?xml version="1.0" encoding="UTF-8"?>
<svg id="Layer_2" data-name="Layer 2" xmlns="http://www.w3.org/2000/svg" viewBox="0 0 342.27 313.32">
  <defs>
    <style>
      .cls-1 {
        fill: #fff;
      }
    </style>
  </defs>
  <g id="Layer_1-2" data-name="Layer 1">
    <path class="cls-1" d="M199.78,17.85c-9.66-6.86-20.24-12.19-30.62-17.85-29.59,15.97-54.32,41.13-68.68,71.66-10,21.25-15.39,44.29-16.79,67.75C34.65,168.84,1.5,223.7,0,281.33c18.89,7.82,36.14,19.13,55.79,25.12,28.25,8.62,57.61,9.08,86.22,1.66,13.99-3.63,27.18-9.57,39.92-16.25,10.65,5.2,21.17,10.57,32.52,14.14,38.79,12.19,80.91,8.85,117.46-8.8,1.27-.61,9.45-4.73,9.82-5.14.73-.82.55-8.31.47-10-.46-9.59-2.12-20.39-4.24-29.76-9.43-41.6-36.14-80.09-72.17-102.81.45-51.84-23.76-101.65-66-131.64ZM185.32,12.32c.5-.26.86-.2,1.35.03.73.34,4.94,4.12,5.91,4.99,33.41,29.94,52.79,75.36,51.67,120.36-4.12-1.68-7.89-4.11-11.93-5.97-39.13-18.05-84.28-19.72-124.51-4,7.46-47.32,36.54-90.75,77.5-115.41ZM159.03,281.16c-.21.87-14.07,7.19-16.01,8.02-33.8,14.38-71.51,16.94-106.83,6.49-3.36-.99-11.77-3.43-14.38-5.11-.48-.31-1.06-.45-1.01-1.19.64-6.33.95-12.66,1.92-18.95,5.94-38.42,28.93-78.74,59.04-103.25.44-.36,3.08-2.61,3.39-2.28,4.9,40.09,25.57,78.39,56.91,103.79,4.67,3.78,12.38,7.8,16.24,11.42.34.32.9.4.75,1.06ZM168.61,275.34c-.98.64-4.45,2.98-5.25,2.91-37.43-30.39-60.31-78.53-58.27-127.18.19-1.02,2.3-1.98,3.32-2.57,21.93-12.55,52.08-20.19,77.29-20.21,8.24,0,17.35,1,25.47,2.37,11.06,1.87,21.83,5.14,32.36,8.89,1.12.75.76,2.57.71,3.81-2.02,49.06-34.67,105.28-75.64,131.97ZM269.65,158.32c33.12,31.1,52.27,76.43,51.14,122.1-16.99,9.38-35.43,16.34-54.69,19.42-27.99,4.48-56.28,1.17-82.58-9.15,36.13-22.45,63.42-59.22,75.36-100.06,3.36-11.49,5.79-23.74,6.23-35.7l4.54,3.39Z"/>
  </g>
</svg>