<?xml version="1.0" encoding="UTF-8"?>
<svg id="Layer_2" data-name="Layer 2" xmlns="http://www.w3.org/2000/svg" xmlns:xlink="http://www.w3.org/1999/xlink" viewBox="0 0 1781.74 489.33">
  <defs>
    <style>
      .cls-1 {
        fill: #fff;
      }

      .cls-2 {
        fill: url(#linear-gradient);
      }
    </style>
    <linearGradient id="linear-gradient" x1="0" y1="244.67" x2="489.33" y2="244.67" gradientTransform="translate(-101.32 240.94) rotate(-44.38)" gradientUnits="userSpaceOnUse">
      <stop offset="0" stop-color="#003a54"/>
      <stop offset=".33" stop-color="#3a7ea8"/>
      <stop offset=".52" stop-color="#66afad"/>
      <stop offset=".79" stop-color="#7bc9ab"/>
      <stop offset="1" stop-color="#45bb89"/>
    </linearGradient>
  </defs>
  <g id="Layer_1-2" data-name="Layer 1">
    <circle class="cls-2" cx="244.67" cy="244.67" r="244.67"/>
    <path class="cls-1" d="M273.13,73.6c-9.66-6.86-20.24-12.19-30.62-17.85-29.59,15.97-54.32,41.13-68.68,71.66-10,21.25-15.39,44.29-16.79,67.75-49.04,29.42-82.19,84.28-83.69,141.91,18.89,7.82,36.14,19.13,55.79,25.12,28.25,8.62,57.61,9.08,86.22,1.66,13.99-3.63,27.18-9.57,39.92-16.25,10.65,5.2,21.17,10.57,32.52,14.14,38.79,12.19,80.91,8.85,117.46-8.8,1.27-.61,9.45-4.73,9.82-5.14.73-.82.55-8.31.47-10-.46-9.59-2.12-20.39-4.24-29.76-9.43-41.6-36.14-80.09-72.17-102.81.45-51.84-23.76-101.65-66-131.64ZM258.66,68.07c.5-.26.86-.2,1.35.03.73.34,4.94,4.12,5.91,4.99,33.41,29.94,52.79,75.36,51.67,120.36-4.12-1.68-7.89-4.11-11.93-5.97-39.13-18.05-84.28-19.72-124.51-4,7.46-47.32,36.54-90.75,77.5-115.41ZM232.38,336.92c-.21.87-14.07,7.19-16.01,8.02-33.8,14.38-71.51,16.94-106.83,6.49-3.36-.99-11.77-3.43-14.38-5.11-.48-.31-1.06-.45-1.01-1.19.64-6.33.95-12.66,1.92-18.95,5.94-38.42,28.93-78.74,59.04-103.25.44-.36,3.08-2.61,3.39-2.28,4.9,40.09,25.57,78.39,56.91,103.79,4.67,3.78,12.38,7.8,16.24,11.42.34.32.9.4.75,1.06ZM241.96,331.09c-.98.64-4.45,2.98-5.25,2.91-37.43-30.39-60.31-78.53-58.27-127.18.19-1.02,2.3-1.98,3.32-2.57,21.93-12.55,52.08-20.19,77.29-20.21,8.24,0,17.35,1,25.47,2.37,11.06,1.87,21.83,5.14,32.36,8.89,1.12.75.76,2.57.71,3.81-2.02,49.06-34.67,105.28-75.64,131.97ZM342.99,214.07c33.12,31.1,52.27,76.43,51.14,122.1-16.99,9.38-35.43,16.34-54.69,19.42-27.99,4.48-56.28,1.17-82.58-9.15,36.13-22.45,63.42-59.22,75.36-100.06,3.36-11.49,5.79-23.74,6.23-35.7l4.54,3.39Z"/>
    <g>
      <polygon class="cls-1" points="811.68 122.71 811.68 215.31 916.09 215.31 916.09 122.71 960.12 122.71 960.12 351.94 916.09 351.94 916.09 253.89 811.68 253.89 811.68 351.94 767.65 351.94 767.65 122.71 811.68 122.71"/>
      <path class="cls-1" d="M1582.46,122.71v39.04c-.33.12-.54-.45-.68-.45h-110.31l-.68.68v55.15h96.69v35.86h-96.69v59.92h114.85v39.04h-158.88V122.71h155.7Z"/>
      <path class="cls-1" d="M1269.7,274.77v77.17h-44.49V122.71l100.57-.02c28.29,1.61,51.84,20.61,62.93,46.01,19.85,45.46-8.64,101.65-59.3,106.09l-59.71-.02ZM1269.7,236.19h54.7c2.82,0,8.16-2.36,10.63-3.9,22.41-13.91,20.19-59.44-5.41-68.95-2.23-.83-7.12-2.05-9.3-2.05h-50.61v74.9Z"/>
      <path class="cls-1" d="M985.99,351.94l87.2-229.19,38.79-.07,87.82,229.27h-45.17l-22.22-57.23-80.09.08-21.16,57.15h-45.17ZM1059.98,263.43h64.91l-31.55-89.88-33.36,89.88Z"/>
      <path class="cls-1" d="M699.58,194.41c-7.76-18.22-25.02-29.98-44.41-32.99-80.16-12.45-104.45,101.94-45.63,142.32,30.81,21.16,76.15,10.59,91.61-23.97l36.04,21.09c-13.44,30.19-47.55,47.83-79.21,51.93-108.04,14-168.13-127.93-90.51-201.27,44.26-41.82,126.55-42.15,161.62,11.34.94,1.43,4.22,6.55,4.47,7.83.1.54.1.92-.39,1.25l-33.57,22.46Z"/>
      <polygon class="cls-1" points="1665.08 122.71 1665.08 312.9 1781.74 312.9 1781.74 351.94 1620.59 351.94 1620.59 122.71 1665.08 122.71"/>
      <path class="cls-1" d="M744.5,406.87l52.43,66.27c1.39.12.22-.49.22-.68v-65.59h7.72v79.89h-6.81l-52.2-65.37v65.37h-7.72v-79.89h6.36Z"/>
      <path class="cls-1" d="M610.59,453.17h-17.7v-5.9h24.06v39.49h-6.36v-11.8c-34.51,35.57-80.84-13.65-56.48-51.71,12.93-20.2,44.77-24.49,58.66-3.36.49.75,2.12,3.12,1.7,3.78l-5.48,3.62c-11.09-20.23-39.39-18.93-49.79,1.52-18.2,35.79,23.91,71.99,51.38,38.22v-13.84Z"/>
      <polygon class="cls-1" points="629.2 1.96 629.2 37.14 629.88 37.82 677.32 37.82 677.32 1.96 685.03 1.96 685.03 82.31 677.32 82.31 677.32 44.63 629.2 44.63 629.2 82.31 621.94 82.31 621.94 1.96 629.2 1.96"/>
      <polygon class="cls-1" points="758.12 1.96 758.12 8.77 713.18 8.77 713.18 38.27 752.22 38.27 752.22 44.63 713.18 44.63 713.18 75.5 759.02 75.5 759.02 82.31 705.46 82.31 705.46 1.96 758.12 1.96"/>
      <path class="cls-1" d="M1252,413.22h-44.94v29.51h39.04v6.36h-39.04v30.87h45.85v6.81h-53.56v-79.89h51.98c.14,0,.35-.58.68-.45v6.81Z"/>
      <polygon class="cls-1" points="877.96 406.87 877.96 413.22 833.02 413.22 833.02 442.73 872.05 442.73 872.05 449.08 833.02 449.08 833.02 479.95 878.86 479.95 878.86 486.76 825.3 486.76 825.3 406.87 877.96 406.87"/>
      <path class="cls-1" d="M941.5,420.94l-7.55-4.93c-9.8-5.01-31.01-5.66-34.8,7.28-5.08,17.34,15.83,18.26,27.12,21.28,8.81,2.36,19.46,5.81,21.85,15.83,2.88,12.1-3.63,21.87-15.23,25.21-14.68,4.23-33.41.71-44.72-9.75l3.2-5.92c4.04,2.73,7.41,5.64,12.03,7.49,8.32,3.34,22.33,4.74,30.43.48,8.85-4.65,9.26-16.42,1.03-21.95-13.57-9.12-45.31-4.45-44.19-28.02s33.63-26.44,49.91-15.83c.79.51,4.15,2.66,3.95,3.39l-3.01,5.42Z"/>
      <path class="cls-1" d="M698.2,486.76h-8.17l-10.43-25.2-34.76-.24c-1.56-.11-1.97,1.69-2.55,2.9-3.41,7.08-5.93,15.26-9,22.55h-8.17l33.8-79.92c1.46.31,5.54-.53,6.38.48l32.91,79.44ZM677.77,455.44l-16.11-39.48-16.57,39.48h32.68Z"/>
      <path class="cls-1" d="M962.16,406.87l28.6,69.91,28.82-69.91h8.17l-33.58,79.67c-1.6.2-5.84.81-6.78-.5l-32.72-79.17h7.49Z"/>
      <path class="cls-1" d="M609.68,8.77h-29.05v73.54h-7.26V8.77h-28.6V1.96h64.23c1.17,0,.53,5.74.68,6.81Z"/>
      <path class="cls-1" d="M1075.42,406.87v73.08h46.3v6.81h-54.02v-80.35c.33-.12.54.45.68.45h7.04Z"/>
      <polygon class="cls-1" points="1141.24 406.87 1141.24 479.95 1187.54 479.95 1187.54 486.76 1133.52 486.76 1133.52 406.87 1141.24 406.87"/>
      <rect class="cls-1" x="710" y="406.87" width="7.72" height="79.89"/>
      <rect class="cls-1" x="1039.56" y="406.87" width="7.72" height="79.89"/>
    </g>
  </g>
</svg>