<?xml version="1.0" encoding="UTF-8"?>
<svg id="Layer_2" xmlns="http://www.w3.org/2000/svg" version="1.1" xmlns:xlink="http://www.w3.org/1999/xlink" viewBox="0 0 1781.7 489.3">
  <!-- Generator: Adobe Illustrator 29.6.1, SVG Export Plug-In . SVG Version: 2.1.1 Build 9)  -->
  <defs>
    <style>
      .st0 {
        fill: #fff;
      }

      .st1 {
        fill: #636363;
      }

      .st2 {
        fill: url(#linear-gradient);
      }
    </style>
    <linearGradient id="linear-gradient" x1="46.1" y1="710.2" x2="535.4" y2="710.2" gradientTransform="translate(533.6 955.6) rotate(-44.4) scale(1 -1)" gradientUnits="userSpaceOnUse">
      <stop offset="0" stop-color="#003a54"/>
      <stop offset=".3" stop-color="#3a7ea8"/>
      <stop offset=".5" stop-color="#66afad"/>
      <stop offset=".8" stop-color="#7bc9ab"/>
      <stop offset="1" stop-color="#45bb89"/>
    </linearGradient>
  </defs>
  <g id="Layer_1-2">
    <circle class="st2" cx="244.7" cy="244.7" r="244.7"/>
    <path class="st0" d="M273.1,73.6c-9.7-6.9-20.2-12.2-30.6-17.8-29.6,16-54.3,41.1-68.7,71.7-10,21.2-15.4,44.3-16.8,67.8-49,29.4-82.2,84.3-83.7,141.9,18.9,7.8,36.1,19.1,55.8,25.1,28.2,8.6,57.6,9.1,86.2,1.7,14-3.6,27.2-9.6,39.9-16.2,10.7,5.2,21.2,10.6,32.5,14.1,38.8,12.2,80.9,8.9,117.5-8.8,1.3-.6,9.5-4.7,9.8-5.1.7-.8.5-8.3.5-10-.5-9.6-2.1-20.4-4.2-29.8-9.4-41.6-36.1-80.1-72.2-102.8.5-51.8-23.8-101.7-66-131.6h0ZM258.7,68.1c.5-.3.9-.2,1.4,0,.7.3,4.9,4.1,5.9,5,33.4,29.9,52.8,75.4,51.7,120.4-4.1-1.7-7.9-4.1-11.9-6-39.1-18.1-84.3-19.7-124.5-4,7.5-47.3,36.5-90.8,77.5-115.4h0ZM232.4,336.9c-.2.9-14.1,7.2-16,8-33.8,14.4-71.5,16.9-106.8,6.5-3.4-1-11.8-3.4-14.4-5.1-.5-.3-1.1-.5-1-1.2.6-6.3.9-12.7,1.9-19,5.9-38.4,28.9-78.7,59-103.2.4-.4,3.1-2.6,3.4-2.3,4.9,40.1,25.6,78.4,56.9,103.8,4.7,3.8,12.4,7.8,16.2,11.4.3.3.9.4.8,1.1h0ZM242,331.1c-1,.6-4.4,3-5.2,2.9-37.4-30.4-60.3-78.5-58.3-127.2.2-1,2.3-2,3.3-2.6,21.9-12.6,52.1-20.2,77.3-20.2,8.2,0,17.4,1,25.5,2.4,11.1,1.9,21.8,5.1,32.4,8.9,1.1.8.8,2.6.7,3.8-2,49.1-34.7,105.3-75.6,132h0ZM343,214.1c33.1,31.1,52.3,76.4,51.1,122.1-17,9.4-35.4,16.3-54.7,19.4-28,4.5-56.3,1.2-82.6-9.1,36.1-22.5,63.4-59.2,75.4-100.1,3.4-11.5,5.8-23.7,6.2-35.7l4.5,3.4h0Z"/>
    <g>
      <polygon class="st1" points="811.7 122.7 811.7 215.3 916.1 215.3 916.1 122.7 960.1 122.7 960.1 351.9 916.1 351.9 916.1 253.9 811.7 253.9 811.7 351.9 767.7 351.9 767.7 122.7 811.7 122.7"/>
      <path class="st1" d="M1582.5,122.7v39c-.3.1-.5-.4-.7-.4h-110.3l-.7.7v55.2h96.7v35.9h-96.7v59.9h114.8v39h-158.9V122.7h155.7Z"/>
      <path class="st1" d="M1269.7,274.8v77.2h-44.5V122.7h100.6c28.3,1.6,51.8,20.6,62.9,46,19.8,45.5-8.6,101.7-59.3,106.1h-59.7ZM1269.7,236.2h54.7c2.8,0,8.2-2.4,10.6-3.9,22.4-13.9,20.2-59.4-5.4-68.9-2.2-.8-7.1-2.1-9.3-2.1h-50.6v74.9h0Z"/>
      <path class="st1" d="M986,351.9l87.2-229.2h38.8c0,0,87.8,229.2,87.8,229.2h-45.2l-22.2-57.2h-80.1c0,0-21.2,57.2-21.2,57.2h-45.2,0ZM1060,263.4h64.9l-31.6-89.9-33.4,89.9Z"/>
      <path class="st1" d="M699.6,194.4c-7.8-18.2-25-30-44.4-33-80.2-12.4-104.5,101.9-45.6,142.3,30.8,21.2,76.2,10.6,91.6-24l36,21.1c-13.4,30.2-47.5,47.8-79.2,51.9-108,14-168.1-127.9-90.5-201.3,44.3-41.8,126.5-42.2,161.6,11.3.9,1.4,4.2,6.6,4.5,7.8,0,.5,0,.9-.4,1.2l-33.6,22.5h0Z"/>
      <polygon class="st1" points="1665.1 122.7 1665.1 312.9 1781.7 312.9 1781.7 351.9 1620.6 351.9 1620.6 122.7 1665.1 122.7"/>
      <path class="st1" d="M744.5,406.9l52.4,66.3c1.4.1.2-.5.2-.7v-65.6h7.7v79.9h-6.8l-52.2-65.4v65.4h-7.7v-79.9h6.4Z"/>
      <path class="st1" d="M610.6,453.2h-17.7v-5.9h24.1v39.5h-6.4v-11.8c-34.5,35.6-80.8-13.6-56.5-51.7,12.9-20.2,44.8-24.5,58.7-3.4.5.8,2.1,3.1,1.7,3.8l-5.5,3.6c-11.1-20.2-39.4-18.9-49.8,1.5-18.2,35.8,23.9,72,51.4,38.2v-13.8h0Z"/>
      <polygon class="st1" points="629.2 2 629.2 37.1 629.9 37.8 677.3 37.8 677.3 2 685 2 685 82.3 677.3 82.3 677.3 44.6 629.2 44.6 629.2 82.3 621.9 82.3 621.9 2 629.2 2"/>
      <polygon class="st1" points="758.1 2 758.1 8.8 713.2 8.8 713.2 38.3 752.2 38.3 752.2 44.6 713.2 44.6 713.2 75.5 759 75.5 759 82.3 705.5 82.3 705.5 2 758.1 2"/>
      <path class="st1" d="M1252,413.2h-44.9v29.5h39v6.4h-39v30.9h45.8v6.8h-53.6v-79.9h52c.1,0,.3-.6.7-.5v6.8h0Z"/>
      <polygon class="st1" points="878 406.9 878 413.2 833 413.2 833 442.7 872 442.7 872 449.1 833 449.1 833 480 878.9 480 878.9 486.8 825.3 486.8 825.3 406.9 878 406.9"/>
      <path class="st1" d="M941.5,420.9l-7.5-4.9c-9.8-5-31-5.7-34.8,7.3-5.1,17.3,15.8,18.3,27.1,21.3,8.8,2.4,19.5,5.8,21.8,15.8,2.9,12.1-3.6,21.9-15.2,25.2-14.7,4.2-33.4.7-44.7-9.8l3.2-5.9c4,2.7,7.4,5.6,12,7.5,8.3,3.3,22.3,4.7,30.4.5,8.8-4.6,9.3-16.4,1-22-13.6-9.1-45.3-4.5-44.2-28s33.6-26.4,49.9-15.8c.8.5,4.2,2.7,4,3.4l-3,5.4h0Z"/>
      <path class="st1" d="M698.2,486.8h-8.2l-10.4-25.2-34.8-.2c-1.6-.1-2,1.7-2.5,2.9-3.4,7.1-5.9,15.3-9,22.5h-8.2l33.8-79.9c1.5.3,5.5-.5,6.4.5l32.9,79.4h0ZM677.8,455.4l-16.1-39.5-16.6,39.5h32.7Z"/>
      <path class="st1" d="M962.2,406.9l28.6,69.9,28.8-69.9h8.2l-33.6,79.7c-1.6.2-5.8.8-6.8-.5l-32.7-79.2h7.5Z"/>
      <path class="st1" d="M609.7,8.8h-29v73.5h-7.3V8.8h-28.6V2h64.2c1.2,0,.5,5.7.7,6.8Z"/>
      <path class="st1" d="M1075.4,406.9v73.1h46.3v6.8h-54v-80.4c.3-.1.5.5.7.5h7,0Z"/>
      <polygon class="st1" points="1141.2 406.9 1141.2 480 1187.5 480 1187.5 486.8 1133.5 486.8 1133.5 406.9 1141.2 406.9"/>
      <rect class="st1" x="710" y="406.9" width="7.7" height="79.9"/>
      <rect class="st1" x="1039.6" y="406.9" width="7.7" height="79.9"/>
    </g>
  </g>
</svg>